PathFileType	4	(X/Y/Z)	Patient4_TMGait_0pt6_02_left_12.trc.trc
DataRate	CameraRate	NumFrames	NumMarkers	Units	OrigDataRate	OrigDataStartFrame	OrigNumFrames
79.096045197740	79.096045197740	4	33	mm	79.096045197740	124	       141
Frame#	Time	Sacral			L.Shoulder			Chest			R.Shoulder			Neck			R.ASIS			L.ASIS			R.Thigh.Superior			R.Thigh.Lateral			R.Thigh.Inferior			R.Patella			L.Thigh.Superior			L.Thigh.Lateral			L.Thigh.Inferior			L.Patella			L.Shank.Superior			L.Shank.Lateral			L.Shank.Inferior			R.Shank.Superior			R.Shank.Lateral			R.Shank.Inferior			R.Heel			R.Midfoot.Superior			R.Midfoot.Lateral			R.Toe			L.Heel			L.Midfoot.Lateral			L.Midfoot.Superior			L.Toe			L.Elbow			L.Wrist			R.Elbow			R.Wrist			
		X1	Y1	Z1	X2	Y2	Z2	X3	Y3	Z3	X4	Y4	Z4	X5	Y5	Z5	X6	Y6	Z6	X7	Y7	Z7	X8	Y8	Z8	X9	Y9	Z9	X10	Y10	Z10	X11	Y11	Z11	X12	Y12	Z12	X13	Y13	Z13	X14	Y14	Z14	X15	Y15	Z15	X16	Y16	Z16	X17	Y17	Z17	X18	Y18	Z18	X19	Y19	Z19	X20	Y20	Z20	X21	Y21	Z21	X22	Y22	Z22	X23	Y23	Z23	X24	Y24	Z24	X25	Y25	Z25	X26	Y26	Z26	X27	Y27	Z27	X28	Y28	Z28	X29	Y29	Z29	X30	Y30	Z30	X31	Y31	Z31	X32	Y32	Z32	X33	Y33	Z33	

124	16.265071428571	748.102162277615	1002.130281828974	497.705127568913	909.200683969333	1423.725525771815	300.381884374398	1028.912044812573	1350.030847228196	446.441308160768	970.463467566017	1429.683283125929	626.536601665735	928.574066075290	1484.438005028047	450.415716328237	977.641452103072	932.674157039754	600.477871918331	948.336366727997	945.933564582577	325.967639023596	972.891736963697	719.185589290609	574.572980857010	865.778410784874	626.980309373431	634.022881084065	925.357046284134	560.281904984168	553.784660629655	903.588474480455	474.019543122612	555.902994457202	1024.866342747110	766.031444193065	363.679842174603	973.633095822954	633.062930643600	294.245042338699	1076.955371266647	577.676415957014	358.000041554158	1101.352607668219	511.111565812219	359.035061122288	1085.937782180795	438.369083766916	351.328383822537	1020.689022407509	305.899671484802	307.954651267475	1109.016758379647	210.807365569144	366.815031211292	862.243568177253	392.012399868610	561.445725918004	775.014937454837	300.164097593117	621.928797936439	799.031340683841	201.122303897441	556.110465577961	643.616300852246	46.147423900443	523.027787541745	816.515237039383	96.542949122274	559.798955288888	726.290217010852	37.506799130900	596.952698253714	934.792859923057	39.269409522667	589.173863454135	1024.948786351624	39.051345997713	415.896807246906	1095.597525976167	38.861830606376	332.762799556519	1171.190181079502	110.631539689303	350.404590368890	1302.025324558790	72.596733193071	319.974075993215	775.620233447831	1090.478082740947	212.817021786667	749.952798358869	831.950907473260	224.268822100271	1125.020136710065	1126.403311376279	725.478438144627	1333.213103045322	1210.906045360780	616.402893910321	
125	16.277714285714	749.719710493711	1000.603186302246	495.556372920628	909.070892833940	1422.240812264704	297.846457555322	1028.975162094809	1349.408354135151	444.177195709849	969.839196598235	1428.979318078939	624.124503887873	928.054445056891	1483.345810026946	447.790339889253	979.093277929645	931.305589725501	599.113268481328	950.707822193071	944.618109745907	324.574517530791	973.903401665722	717.474757165264	573.410892121313	866.212987539548	625.546997345085	632.494220017554	925.805657037968	558.505462817414	552.439214321162	903.346676395745	471.496388221630	554.497547200817	1027.345766904735	764.323641922604	362.834239378468	974.805015721604	631.650046367491	294.190431483382	1077.823651544560	576.033676179530	358.199678439226	1100.689774704760	508.487775282745	359.869787171397	1084.771355323144	435.454275280017	351.948017535012	1017.815951484811	303.883978637643	308.381141607271	1104.134755871514	207.632067823173	368.188280534146	860.387249787784	390.094909128207	560.153859049434	771.508614145359	299.914731707257	620.893854066821	793.613077906352	200.350769809875	555.468737762530	635.977699805336	46.841291676929	523.118037954831	809.154255149351	96.523253213775	559.670022988331	718.702584829888	37.813499650352	597.015137504750	927.239075812751	39.091838786336	589.291914464152	1015.999302101599	38.395864341266	417.025863610434	1086.615344645999	37.244989556745	333.700639773676	1164.385154274989	106.421189277428	352.401123282497	1294.437902865329	64.770943558667	321.465681979693	775.082566040755	1089.156543536080	210.973379692398	749.215222880383	830.605354429162	222.848675371201	1123.946656763284	1125.328584304881	724.253569669865	1331.136649888394	1211.057511734598	614.195068686976	
126	16.290357142857	751.255509340002	999.295000791323	493.381316786577	909.097518739814	1420.820540870854	295.131491422671	1029.143510672094	1348.897442546909	441.814473704335	969.323446006050	1428.524077046880	621.560532232393	927.681423780467	1482.428280142641	444.942638475585	980.487198037705	930.080619495951	597.695061011520	953.018344880323	943.620016689441	323.175042777921	975.190150668154	715.901697849434	572.105688405093	867.136966915068	624.078802902677	630.783464970365	926.906533406110	556.775177508404	550.908136776531	903.937439870085	468.798780926889	553.035884880601	1029.780279874617	762.970150477366	362.086054370889	976.241686672003	630.776601525937	293.847315014260	1078.815616846714	574.852495058508	358.325339150179	1100.154769308805	506.387026440965	360.530418358013	1083.789719982884	433.049923740251	352.333143179225	1015.307067929289	302.385629953796	308.334642410685	1099.475903935332	205.011305438422	369.239143852498	859.077200459366	388.132358285132	558.748727564350	768.430009532958	299.847314963161	619.768423120014	788.498329481273	199.733224939776	554.810467272418	628.381360998877	48.031957732409	523.265977748793	801.946610366906	96.515389478433	559.543775241847	711.153470999801	38.350431639235	597.103576485802	919.693671912125	38.858164799749	589.376747203853	1007.419604525221	37.931734935312	417.715305747200	1078.069143852900	36.109695483862	334.273872221188	1157.611224526748	103.077760139129	354.053963609216	1287.010289200016	58.488683785537	322.760473969764	775.310533716642	1087.530473916250	209.040453827703	749.366425139022	828.962899904123	221.160032258804	1122.002079727552	1123.946261111888	723.304911945243	1328.698456961002	1209.800350059835	612.193457775738	
127	16.303000000000	752.668955240772	998.280672993566	491.203985859400	909.272952177940	1419.537977350908	292.270956974626	1029.412056808026	1348.545993889818	439.372336970246	968.950938733022	1428.387727211927	618.861173787450	927.473739743535	1481.747478710123	441.904456684944	981.773688206225	929.096413368171	596.218339380599	955.195441833571	943.004700411271	321.751891969375	976.747674744083	714.566603238815	570.635524676882	868.616526104252	622.637724837478	628.917849203854	928.746912065840	555.169706589833	549.217939426908	905.487288519588	465.989543296838	551.606015683962	1032.115964923477	762.067379672038	361.400401663202	977.889908421681	630.466072559280	293.214501087003	1079.875392912097	574.151674555049	358.302716235343	1099.740362541859	504.853432430047	360.936902788234	1082.960595072049	431.192633032216	352.459416810689	1013.102462356697	301.436446810935	307.855458262139	1095.013295379364	202.985803424305	369.953047744030	858.424715799657	386.203895344219	557.301539158731	765.872472634391	300.070060959795	618.596724002169	783.787502982496	199.375286746860	554.179590306549	620.895621237308	49.926030556928	523.473604988486	794.978986523632	96.549624979991	559.442362513323	703.682372455442	39.230871514610	597.213893755652	912.153849815260	38.551327187553	589.409231751907	999.285153105810	37.650426017375	418.039719616317	1070.002521336525	35.416367260368	334.532774422909	1150.874566565291	100.645549132343	355.307682090694	1279.761570330800	53.872231806083	323.772899693382	776.338352236261	1085.673487861547	207.007554161563	750.461635123664	827.090030657874	219.214216061444	1119.170708301776	1122.351882402299	722.604392053286	1325.914457762845	1207.143519927881	610.405767254033	
